<svg width="250" height="100" viewBox="0 0 250 100" fill="none" xmlns="http://www.w3.org/2000/svg">
<path d="M61.4727 42.1875C63.1133 42.2812 64.4609 42.9141 65.5156 44.0859C66.5703 45.2344 67.332 46.5469 67.8008 48.0234C68.2695 49.5 68.5039 51.0117 68.5039 52.5586C68.5039 54.1055 68.2695 55.6172 67.8008 57.0938C67.3555 58.5703 66.5938 59.8945 65.5156 61.0664C64.4609 62.2148 63.1133 62.8359 61.4727 62.9297H48.5352C47.9023 62.9062 47.3633 62.6836 46.918 62.2617C46.4961 61.8164 46.2734 61.2773 46.25 60.6445V51.9258C46.2734 51.2695 46.5195 50.7305 46.9883 50.3086C47.457 49.8633 48.0195 49.6406 48.6758 49.6406C49.3086 49.6641 49.8477 49.8984 50.293 50.3438C50.7383 50.7656 50.9727 51.293 50.9961 51.9258V57.2695C50.9961 57.9023 51.3242 58.2188 51.9805 58.2188H60.2773C61.168 58.1719 61.9062 57.832 62.4922 57.1992C63.0781 56.5664 63.5 55.8516 63.7578 55.0547C64.0391 54.2344 64.1797 53.4023 64.1797 52.5586C64.1797 51.7148 64.0391 50.8945 63.7578 50.0977C63.5 49.2773 63.0781 48.5508 62.4922 47.918C61.9062 47.2852 61.168 46.9453 60.2773 46.8984H48.5352C47.1289 46.7812 46.3672 46.0195 46.25 44.6133C46.25 43.957 46.4609 43.3945 46.8828 42.9258C47.3281 42.457 47.8789 42.2109 48.5352 42.1875H61.4727ZM74.7617 46.6172C75.3945 46.6406 75.9336 46.875 76.3789 47.3203C76.8242 47.7422 77.0586 48.2695 77.082 48.9023V61.0664C76.9414 62.4727 76.168 63.2344 74.7617 63.3516C74.1055 63.3516 73.5312 63.1406 73.0391 62.7188C72.5703 62.2734 72.3359 61.7227 72.3359 61.0664V48.9023C72.3594 48.2461 72.6055 47.707 73.0742 47.2852C73.543 46.8398 74.1055 46.6172 74.7617 46.6172ZM71.8086 42.0469C71.8086 41.3906 72.0898 40.8281 72.6523 40.3594C73.2148 39.8906 73.8945 39.6562 74.6914 39.6562C75.4883 39.6562 76.168 39.8906 76.7305 40.3594C77.293 40.8281 77.5742 41.3906 77.5742 42.0469C77.5742 42.7266 77.293 43.3008 76.7305 43.7695C76.168 44.2383 75.4883 44.4727 74.6914 44.4727C73.8945 44.4727 73.2148 44.2383 72.6523 43.7695C72.0898 43.3008 71.8086 42.7266 71.8086 42.0469ZM101.094 52.5938C101.094 52.0078 100.789 51.7031 100.18 51.6797H87.875C87.4297 51.7031 87.043 51.9023 86.7148 52.2773C86.3867 52.6289 86.1406 53.0508 85.9766 53.543C85.8359 54.0117 85.7656 54.4922 85.7656 54.9844C85.7656 55.4531 85.8359 55.9336 85.9766 56.4258C86.1406 56.8945 86.3867 57.3164 86.7148 57.6914C87.043 58.043 87.4297 58.2188 87.875 58.2188H96.875C97.5312 58.2188 98.082 58.4531 98.5273 58.9219C98.9961 59.3672 99.2305 59.918 99.2305 60.5742C99.2305 61.2305 98.9961 61.7812 98.5273 62.2266C98.082 62.6953 97.5312 62.9297 96.875 62.9297H88.0156C86.375 62.9062 85.0156 62.4492 83.9375 61.5586C82.8828 60.6445 82.1211 59.625 81.6523 58.5C81.207 57.3516 80.9844 56.168 80.9844 54.9492C80.9844 53.7773 81.2188 52.6289 81.6875 51.5039C82.1562 50.3555 82.918 49.3359 83.9727 48.4453C85.0273 47.5312 86.5859 47.0391 88.6484 46.9688H103.414C104.07 46.9688 104.633 47.1914 105.102 47.6367C105.57 48.0586 105.816 48.5977 105.84 49.2539V60.3633C105.84 62.2383 105.582 64.0078 105.066 65.6719C104.598 67.1484 103.824 68.3906 102.746 69.3984C101.691 70.4297 100.344 70.9922 98.7031 71.0859H86.5391C85.9062 71.0625 85.3672 70.8281 84.9219 70.3828C84.5 69.9609 84.2773 69.4336 84.2539 68.8008C84.2539 68.1445 84.4648 67.582 84.8867 67.1133C85.332 66.6445 85.8828 66.3984 86.5391 66.375H97.5078C98.3984 66.3281 99.1367 65.9883 99.7227 65.3555C100.309 64.7227 100.684 63.9844 100.848 63.1406C101.012 62.2969 101.094 61.207 101.094 59.8711V52.5938ZM113.012 46.6172C113.645 46.6406 114.184 46.875 114.629 47.3203C115.074 47.7422 115.309 48.2695 115.332 48.9023V61.0664C115.191 62.4727 114.418 63.2344 113.012 63.3516C112.355 63.3516 111.781 63.1406 111.289 62.7188C110.82 62.2734 110.586 61.7227 110.586 61.0664V48.9023C110.609 48.2461 110.855 47.707 111.324 47.2852C111.793 46.8398 112.355 46.6172 113.012 46.6172ZM110.059 42.0469C110.059 41.3906 110.34 40.8281 110.902 40.3594C111.465 39.8906 112.145 39.6562 112.941 39.6562C113.738 39.6562 114.418 39.8906 114.98 40.3594C115.543 40.8281 115.824 41.3906 115.824 42.0469C115.824 42.7266 115.543 43.3008 114.98 43.7695C114.418 44.2383 113.738 44.4727 112.941 44.4727C112.145 44.4727 111.465 44.2383 110.902 43.7695C110.34 43.3008 110.059 42.7266 110.059 42.0469ZM134.879 42.1875C136.52 42.2812 137.867 42.9141 138.922 44.0859C139.977 45.2344 140.738 46.5469 141.207 48.0234C141.676 49.5 141.91 51.0117 141.91 52.5586C141.91 54.1055 141.676 55.6172 141.207 57.0938C140.762 58.5703 140 59.8945 138.922 61.0664C137.867 62.2148 136.52 62.8359 134.879 62.9297H121.941C121.309 62.9062 120.77 62.6836 120.324 62.2617C119.902 61.8164 119.68 61.2773 119.656 60.6445V51.9258C119.68 51.2695 119.926 50.7305 120.395 50.3086C120.863 49.8633 121.426 49.6406 122.082 49.6406C122.715 49.6641 123.254 49.8984 123.699 50.3438C124.145 50.7656 124.379 51.293 124.402 51.9258V57.2695C124.402 57.9023 124.73 58.2188 125.387 58.2188H133.684C134.574 58.1719 135.312 57.832 135.898 57.1992C136.484 56.5664 136.906 55.8516 137.164 55.0547C137.445 54.2344 137.586 53.4023 137.586 52.5586C137.586 51.7148 137.445 50.8945 137.164 50.0977C136.906 49.2773 136.484 48.5508 135.898 47.918C135.312 47.2852 134.574 46.9453 133.684 46.8984H121.941C120.535 46.7812 119.773 46.0195 119.656 44.6133C119.656 43.957 119.867 43.3945 120.289 42.9258C120.734 42.457 121.285 42.2109 121.941 42.1875H134.879ZM148.168 46.6172C148.801 46.6406 149.34 46.875 149.785 47.3203C150.23 47.7422 150.465 48.2695 150.488 48.9023V61.0664C150.348 62.4727 149.574 63.2344 148.168 63.3516C147.512 63.3516 146.938 63.1406 146.445 62.7188C145.977 62.2734 145.742 61.7227 145.742 61.0664V48.9023C145.766 48.2461 146.012 47.707 146.48 47.2852C146.949 46.8398 147.512 46.6172 148.168 46.6172ZM145.215 42.0469C145.215 41.3906 145.496 40.8281 146.059 40.3594C146.621 39.8906 147.301 39.6562 148.098 39.6562C148.895 39.6562 149.574 39.8906 150.137 40.3594C150.699 40.8281 150.98 41.3906 150.98 42.0469C150.98 42.7266 150.699 43.3008 150.137 43.7695C149.574 44.2383 148.895 44.4727 148.098 44.4727C147.301 44.4727 146.621 44.2383 146.059 43.7695C145.496 43.3008 145.215 42.7266 145.215 42.0469ZM165.992 46.4414C167.211 46.4414 168.406 46.582 169.578 46.8633C170.773 47.1445 171.91 47.5664 172.988 48.1289C174.066 48.668 175.016 49.3945 175.836 50.3086C176.68 51.2227 177.137 52.3125 177.207 53.5781V55.0547V61.0664C177.066 62.4727 176.293 63.2344 174.887 63.3516C174.23 63.3516 173.656 63.1406 173.164 62.7188C172.695 62.2734 172.461 61.7227 172.461 61.0664V59.5195V54.668C172.414 53.9414 172.133 53.3438 171.617 52.875C171.125 52.3828 170.562 51.9961 169.93 51.7148C169.32 51.4336 168.676 51.2227 167.996 51.082C167.34 50.9414 166.672 50.8711 165.992 50.8711C165.312 50.8711 164.633 50.9414 163.953 51.082C163.297 51.2227 162.652 51.4336 162.02 51.7148C161.41 51.9961 160.848 52.3828 160.332 52.875C159.84 53.3438 159.57 53.9414 159.523 54.668V59.5195V61.0664C159.406 62.4727 158.645 63.2344 157.238 63.3516C156.582 63.3516 156.008 63.1406 155.516 62.7188C155.047 62.2734 154.812 61.7227 154.812 61.0664V55.0547V53.5781C154.883 52.3125 155.328 51.2227 156.148 50.3086C156.969 49.3945 157.918 48.668 158.996 48.1289C160.074 47.5664 161.199 47.1445 162.371 46.8633C163.566 46.582 164.773 46.4414 165.992 46.4414ZM188.879 62.9297C186.816 62.8594 185.258 62.3789 184.203 61.4883C183.148 60.5742 182.387 59.5547 181.918 58.4297C181.449 57.2812 181.215 56.1211 181.215 54.9492C181.215 53.7305 181.438 52.5586 181.883 51.4336C182.352 50.2852 183.113 49.2656 184.168 48.375C185.246 47.4609 186.605 46.9922 188.246 46.9688H201.605C202.262 46.9688 202.812 47.1914 203.258 47.6367C203.727 48.0586 203.961 48.5742 203.961 49.1836C203.961 49.8164 203.727 50.3555 203.258 50.8008C202.812 51.2227 202.262 51.4336 201.605 51.4336H188.457C187.941 51.4336 187.484 51.6094 187.086 51.9609C186.711 52.3125 186.43 52.7695 186.242 53.332C186.078 53.8945 185.996 54.4453 185.996 54.9844C185.996 55.5703 186.078 56.1445 186.242 56.707C186.43 57.2695 186.711 57.7266 187.086 58.0781C187.484 58.4062 187.941 58.582 188.457 58.6055H201.605C202.262 58.6055 202.812 58.8164 203.258 59.2383C203.727 59.6602 203.961 60.1641 203.961 60.75C203.961 61.3594 203.727 61.875 203.258 62.2969C202.812 62.7188 202.262 62.9297 201.605 62.9297H188.879ZM203.539 54.8789C203.539 55.3242 203.34 55.7109 202.941 56.0391C202.59 56.3438 202.145 56.4961 201.605 56.4961H190.109C189.57 56.4961 189.113 56.3438 188.738 56.0391C188.363 55.7109 188.176 55.3242 188.176 54.8789C188.176 54.457 188.363 54.082 188.738 53.7539C189.113 53.4492 189.57 53.2969 190.109 53.2969H201.605C202.145 53.2969 202.602 53.4609 202.977 53.7891C203.352 54.0938 203.539 54.457 203.539 54.8789Z" fill="black"/>
</svg>
