<svg width="540" height="558" viewBox="0 0 540 558" fill="none" xmlns="http://www.w3.org/2000/svg">
<path d="M230.41 227.265C193.922 227.257 157.933 227.255 121.945 227.239C104.431 227.231 93.6087 217.218 92.2513 199.712C92.0457 197.06 92.0275 194.377 92.1535 191.72C92.4956 184.505 95.2309 181.381 102.502 180.827C106.249 180.542 107.213 178.966 107.403 175.551C108.139 162.282 108.354 148.956 112.005 135.998C123.797 94.1465 149.819 64.9369 189.753 47.9381C199.595 43.7484 209.779 40.7059 220.249 38.7153C225.15 37.7836 227.219 35.7009 227.201 30.4179C227.151 15.6491 236.541 3.17593 249.332 0.839974C270.303 -2.98968 285.536 6.2954 288.563 28.2956C290.052 39.1114 288.18 36.8557 299.602 39.5206C321.364 44.5976 341.295 53.3129 358.667 67.3942C384.257 88.1366 400.197 114.69 405.773 147.294C407.319 156.338 408.132 165.448 407.714 174.617C407.526 178.74 408.742 180.936 413.257 180.753C416.872 180.607 419.696 182.23 421.282 185.632C428.438 200.977 418.032 222.635 401.705 226.578C399.055 227.217 396.434 227.254 393.777 227.254C353.457 227.261 313.136 227.257 272.816 227.255C265.054 227.255 264.782 227.496 264.776 235.512C264.753 262.003 264.748 288.495 264.759 314.986C264.765 333.111 254.274 343.836 236.063 344.113C227.734 344.24 219.394 344.335 211.074 344.039C206.623 343.88 203.879 345.226 201.304 349.108C194.347 359.597 180.261 361.372 170.638 353.506C161.233 345.818 160.196 330.994 168.457 322.326C178.091 312.217 193.699 313.439 201.591 325.256C203.854 328.645 206.292 329.791 210.175 329.692C219 329.467 227.834 329.659 236.665 329.615C246.127 329.567 251.073 324.593 251.023 314.994C250.915 294.186 250.688 273.378 250.543 252.57C250.498 246.084 251.121 239.623 250.637 233.103C250.313 228.739 248.417 227.201 244.402 227.254C239.905 227.314 235.407 227.266 230.41 227.265ZM307.33 56.5866C277.657 47.9657 247.778 46.9637 217.645 54.0292C161.204 67.2637 121.119 113.441 121.623 173.112C121.683 180.134 122.16 180.662 129.401 180.659C183.216 180.641 237.032 180.636 290.847 180.627C323.17 180.621 355.493 180.532 387.815 180.702C392.663 180.728 394.363 179.123 394.15 174.361C393.955 170.033 393.469 165.742 393.2 161.433C392.154 144.677 387.208 129.056 379.259 114.441C363.512 85.4916 339.181 66.946 307.33 56.5866ZM311.912 212.653C336.576 212.654 361.24 212.657 385.905 212.654C389.904 212.653 393.914 212.807 397.9 212.565C403.721 212.211 408.418 206.356 408.166 199.877C407.905 193.174 402.587 195.328 399.16 195.324C304.671 195.194 210.181 195.205 115.692 195.194C114.192 195.194 112.693 195.226 111.193 195.231C107.52 195.242 106.283 197.104 106.573 200.676C107.172 208.07 112.229 212.621 120.433 212.624C183.926 212.652 247.419 212.648 311.912 212.653ZM265.83 15.783C253.753 10.8886 242.936 16.826 241.019 29.4455C240.557 32.4893 240.793 35.4352 244.829 35.5018C253.283 35.6413 261.741 35.5638 270.198 35.5507C273.391 35.5457 274.455 33.7646 274.451 30.7378C274.443 24.3801 271.783 19.5735 265.83 15.783ZM181.089 330.066C177.207 331.899 174.936 334.699 176.526 339.122C178.093 343.482 182.548 345.669 186.483 344.396C189.762 343.335 192.434 338.856 191.643 335.745C190.533 331.382 186.844 329.16 181.089 330.066Z" fill="#D88E2D"/>
<path d="M302.226 344.665C307.871 349.135 313.036 353.299 314.882 360.548C317.84 372.161 310.627 384.708 299.138 387.109C286.154 389.823 274.537 381.723 273.071 368.904C272.024 359.754 275.136 352.393 283.187 347.764C286.656 345.77 287.452 343.303 287.419 339.654C287.271 323.162 287.273 306.668 287.342 290.174C287.391 278.623 291.162 268.906 301.779 262.953C306.055 260.556 310.713 259.54 315.668 259.548C351.32 259.605 386.973 259.592 422.626 259.584C435.575 259.581 441.145 254.004 441.142 241.109C441.137 217.452 441.034 193.794 441.201 170.137C441.232 165.658 440.085 163.031 435.798 160.795C421.715 153.45 415.307 141.051 414.051 125.543C412.941 111.832 414.103 98.4712 421.239 86.4452C427.495 75.901 435.868 67.7634 449.28 67.6264C459.638 67.5205 466.665 73.5637 472.668 81.0196C479.705 89.7599 482.629 100.267 483.567 111.12C484.621 123.304 483.999 135.424 477.144 146.348C472.854 153.184 467.415 158.676 459.861 161.612C456.257 163.013 455.295 165.186 455.318 168.806C455.461 190.963 455.492 213.121 455.404 235.278C455.368 244.432 455.353 253.626 449.55 261.592C444.075 269.109 436.92 273.272 427.559 273.282C391.573 273.32 355.587 273.307 319.601 273.325C306.72 273.332 301.731 278.294 301.712 291.085C301.705 295.582 301.719 300.081 301.763 304.578C301.797 307.997 303.357 309.747 306.987 309.718C317.982 309.629 328.979 309.599 339.973 309.73C343.253 309.769 344.493 307.885 345.918 305.414C351.078 296.47 360.132 292.982 370.308 295.727C378.731 297.999 384.69 306.255 384.743 315.726C384.799 325.68 378.677 333.979 369.326 336.626C361.534 338.833 351.836 335.618 347.3 328.588C345.057 325.112 342.494 324.139 338.669 324.203C328.342 324.376 318.006 324.444 307.684 324.178C303.003 324.058 301.378 325.869 301.67 330.341C301.974 334.985 301.942 339.651 302.226 344.665ZM470.08 116.585C469.343 107.175 467.33 98.1643 461.599 90.3867C453.183 78.9664 443.399 78.8199 435.73 90.8499C426.511 105.309 424.636 121.037 431.759 136.985C434.755 143.693 439.883 149 447.89 149.535C456.091 150.084 461.059 144.923 464.966 138.545C468.915 132.1 470.006 124.908 470.08 116.585ZM295.508 358.178C290.06 358.287 286.115 361.284 285.899 365.477C285.716 369.024 289.841 373.675 293.6 374.161C297.207 374.628 301.349 371.25 301.904 367.093C302.492 362.689 300.353 359.818 295.508 358.178ZM356.874 317.855C359.557 323.187 363.47 324.986 367.438 322.605C370.873 320.543 372.043 317.38 370.847 313.651C369.711 310.111 366.842 308.005 363.254 308.586C358.827 309.302 356.394 312.329 356.874 317.855Z" fill="#D88E2D"/>
<path d="M50.0415 153.377C41.6876 146.297 39.5507 136.931 39.3894 127.072C39.1115 110.085 39.3045 93.0903 39.3327 76.099C39.3391 72.2159 40.121 68.7383 44.5877 67.5451C48.6403 66.4624 52.0256 68.267 52.9506 72.3741C53.4558 74.6172 53.4989 76.9958 53.5081 79.3142C53.5751 96.3044 53.4197 113.297 53.6719 130.284C53.8024 139.072 59.6281 145.074 68.4362 146.437C76.4419 147.677 84.9341 142.759 87.4192 135.029C88.4216 131.911 88.9379 128.504 88.9565 125.225C89.0475 109.236 88.8869 93.245 88.842 77.2549C88.8374 75.5935 88.8844 73.9133 89.1246 72.2736C89.6322 68.8085 91.9021 67.0582 95.23 66.7231C98.4415 66.3997 100.603 67.9859 101.927 70.8739C102.797 72.7715 102.709 74.7705 102.709 76.7632C102.717 93.4216 102.815 110.081 102.68 126.738C102.561 141.543 96.6762 152.842 82.2827 158.535C79.0597 159.81 77.7119 161.907 77.722 165.389C77.7969 191.376 77.6807 217.363 77.806 243.349C77.8507 252.61 84.786 259.482 93.9543 259.539C110.945 259.644 127.939 259.419 144.927 259.631C149.306 259.685 151.368 257.334 153.707 254.303C159.884 246.299 170.654 244.109 179.829 248.642C187.644 252.503 192.48 263.293 190.314 272.034C187.86 281.938 179.084 288.777 169.06 288.196C161.596 287.763 155.518 284.408 152.097 277.613C150.379 274.199 148.168 273.275 144.624 273.299C127.634 273.417 110.642 273.385 93.6504 273.313C76.4466 273.239 64.1597 261 64.0783 243.661C63.9578 218.008 63.9374 192.353 64.1115 166.7C64.1417 162.246 63.1924 159.351 58.4828 158.321C55.3332 157.632 52.8618 155.497 50.0415 153.377ZM173.749 261.23C170.011 258.593 166.776 259.62 164.173 262.876C161.919 265.694 162.114 268.722 164.456 271.506C167.374 274.975 171.152 275.327 174.482 272.491C177.912 269.567 177.858 266.063 173.749 261.23Z" fill="#D88E2D"/>
<path d="M64.077 75.2702C64.7493 69.453 67.1707 66.6847 71.077 66.8108C75.3368 66.9481 77.7267 70 77.7399 75.587C77.7803 92.7002 77.7903 109.814 77.7519 126.927C77.7405 131.997 75.101 134.874 70.8103 134.783C66.809 134.699 64.1477 131.858 64.1225 127.071C64.0323 109.959 64.0783 92.845 64.077 75.2702Z" fill="#D88E2D"/>
<path d="M204.748 516.918C204.63 521.067 204.992 524.73 204.266 528.371C200.79 545.827 192.844 553.691 175.288 556.555C163.665 558.451 152.436 556.954 141.667 552.032C137.846 550.286 136.132 547.997 138.272 543.853C139.688 541.11 139.828 537.772 142.154 535.018C149.844 540.087 158.063 542.933 167.165 542.597C179.36 542.148 186.132 536.569 188.686 524.928C189.11 522.994 189.565 521.017 187.665 518.601C178.153 527.831 166.686 529.25 154.503 525.876C147.222 523.86 141.485 519.258 137.22 512.991C127.082 498.094 128.547 476.883 140.509 464.508C153 451.584 168.5 450.949 187.764 462.577C188.019 462.391 188.325 462.243 188.514 462.003C189.915 460.214 187.784 456.655 190.866 456.02C194.92 455.184 199.208 455.096 203.247 456.127C205.45 456.69 204.701 459.23 204.706 460.949C204.759 479.44 204.744 497.931 204.748 516.918ZM155.289 473.267C154.31 474.164 153.245 474.984 152.368 475.972C146.327 482.77 145.076 493.09 149.268 501.131C153.097 508.477 161.634 513.309 169.348 512.497C179.131 511.467 186.987 505.296 189.254 496.862C191.764 487.523 188.944 478.277 182.005 473.086C174.439 467.428 164.764 467.342 155.289 473.267Z" fill="#D88E2D"/>
<path d="M0.0653332 503.941C0.0640202 481.132 0.0556741 458.823 0.0668591 436.515C0.0702611 429.743 0.095531 429.678 7.05834 429.739C21.1742 429.864 35.3324 429.1 49.2626 432.47C77.8468 439.385 87.2039 463.214 84.1354 485.691C80.7223 510.691 63.6938 524.725 38.1175 526.416C27.1278 527.142 16.1646 526.784 5.19656 527.146C1.29135 527.274 -0.145329 525.821 0.0114697 521.919C0.245265 516.102 0.0680952 510.268 0.0653332 503.941ZM16.5075 508.946C16.7628 511.433 18.5431 511.662 20.4991 511.657C24.6655 511.646 28.8343 511.739 32.9979 511.63C49.1331 511.205 65.9598 504.009 67.4735 481.692C68.6944 463.694 59.7421 450.285 42.8371 446.314C36.0838 444.727 29.2351 445.577 22.4423 445.147C17.9097 444.861 16.2464 446.414 16.2956 451.049C16.4974 470.045 16.4113 489.044 16.5075 508.946Z" fill="#D88E2D"/>
<path d="M323.483 438.727C341.298 450.27 346.119 472.965 341.175 491.882C336.13 511.184 322.732 522.102 303.102 525.355C289.894 527.544 276.56 526.851 263.263 527.061C258.632 527.134 258.808 524.035 258.813 521.001C258.851 500.861 259.132 480.719 258.904 460.582C258.804 451.764 258.713 442.959 258.982 434.144C259.065 431.419 259.634 429.604 262.839 429.694C276.948 430.089 291.117 428.657 305.147 431.506C311.61 432.818 317.506 435.324 323.483 438.727ZM325.944 483.81C325.995 482.148 326.087 480.485 326.089 478.823C326.115 461.057 317.009 449.706 299.625 445.955C292.561 444.431 285.378 445.215 278.242 445.157C275.659 445.135 274.804 446.667 274.806 449.026C274.824 468.497 274.851 487.969 274.793 507.44C274.784 510.775 276.392 511.762 279.443 511.669C283.766 511.537 288.098 511.707 292.423 511.609C310.511 511.199 321.671 502.149 325.944 483.81Z" fill="#D88E2D"/>
<path d="M470.929 500.97C466.38 479.339 476.663 460.271 496.166 455.477C521.234 449.316 540.859 463.372 539.728 493.714C539.614 496.777 537.601 496.514 535.555 496.529C521.565 496.626 507.575 496.761 493.584 496.855C486.367 496.903 485.538 498.114 488.394 504.603C493.427 516.037 509.914 519.88 518.621 510.84C522.884 506.414 526.419 506.316 531.221 508.227C533.042 508.952 534.943 509.478 536.765 510.081C534.437 520.901 522.158 528.451 506.73 528.87C489.363 529.342 476.078 519.122 470.929 500.97ZM499.936 484.972C506.267 484.963 512.599 484.894 518.929 484.968C522.703 485.012 523.537 483.505 522.379 479.985C519.16 470.205 508.144 465.209 498.38 469.284C491.506 472.152 487.348 478.264 488.123 484.972C491.687 484.972 495.317 484.972 499.936 484.972Z" fill="#D88E2D"/>
<path d="M440.123 488.066C439.954 484.941 440.402 482.268 439.573 479.651C437.061 471.723 431.211 468.237 422.037 469.274C414.227 470.156 407.875 476.481 407.723 484.162C407.484 496.32 407.398 508.49 407.675 520.645C407.786 525.501 406.078 527.061 401.389 527.003C389.305 526.855 391.192 527.397 391.128 516.838C391.013 498.012 391.156 479.183 390.926 460.359C390.878 456.492 392.215 455.276 395.802 455.515C398.457 455.692 401.131 455.571 403.797 455.581C405.594 455.587 407.141 455.933 407.441 458.111C408.068 462.664 410.119 461.626 412.798 459.649C419.369 454.802 426.557 452.562 434.847 454.381C447.17 457.085 455.434 466.329 455.679 478.9C455.961 493.389 455.705 507.887 455.833 522.38C455.862 525.568 454.734 526.902 451.537 526.945C437.362 527.134 440.312 527.394 440.143 516.537C439.998 507.209 440.121 497.877 440.123 488.066Z" fill="#D88E2D"/>
<path d="M228.826 527.022C225.298 527.277 223.94 526.171 223.961 522.77C224.091 501.956 224.076 481.14 223.979 460.325C223.964 456.943 225.055 455.54 228.567 455.599C241.713 455.824 239.62 454.243 239.702 466.195C239.824 483.846 239.735 501.498 239.728 519.149C239.725 527.039 239.715 527.039 231.765 527.045C230.932 527.046 230.1 527.036 228.826 527.022Z" fill="#D88E2D"/>
<path d="M115.756 498.942C115.749 506.94 115.62 514.442 115.789 521.936C115.868 525.449 114.831 527.165 111.035 527.144C97.7045 527.069 100.2 527.758 100.12 516.742C99.9852 498.413 100.18 480.081 100.005 461.753C99.9643 457.437 100.903 455.415 105.781 455.584C117.119 455.977 115.667 454.558 115.743 465.448C115.82 476.445 115.758 487.444 115.756 498.942Z" fill="#D88E2D"/>
<path d="M358.081 464.984C358.212 454.928 356.844 455.867 367.428 455.46C372.563 455.263 373.929 457.037 373.864 462.012C373.608 481.503 373.601 501.001 373.866 520.492C373.934 525.513 372.477 527.296 367.394 527.084C357.284 526.662 358.113 527.895 358.099 517.963C358.074 500.468 358.085 482.973 358.081 464.984Z" fill="#D88E2D"/>
<path d="M221.145 436.016C221.707 430.981 224.142 427.857 228.729 426.879C232.956 425.978 236.688 427.295 239.384 430.697C241.765 433.7 241.878 437.188 240.225 440.553C238.185 444.705 234.683 446.621 230.058 446.18C225.139 445.711 222.24 442.469 221.145 436.016Z" fill="#D88E2D"/>
<path d="M369.462 445.507C363.353 446.715 359.102 445.292 357.128 441.139C355.337 437.371 355.109 433.384 357.981 429.907C360.787 426.51 365.901 425.666 370.328 427.549C373.78 429.017 375.337 431.781 375.676 435.305C376.128 440 373.954 443.26 369.462 445.507Z" fill="#D88E2D"/>
<path d="M116.587 440.741C113.868 445.265 110.067 447.042 105.372 446.052C101.765 445.291 99.0508 442.966 98.1481 439.204C97.1487 435.039 97.7033 431.259 101.582 428.58C105.688 425.745 109.886 425.992 113.668 428.818C117.533 431.707 118.623 435.748 116.587 440.741Z" fill="#D88E2D"/>
</svg>
