<svg width="445" height="388" viewBox="0 0 445 388" fill="none" xmlns="http://www.w3.org/2000/svg">
<path d="M191.168 227.265C154.681 227.257 118.692 227.255 82.7036 227.239C65.1897 227.231 54.3675 217.218 53.0101 199.712C52.8045 197.06 52.7863 194.377 52.9123 191.72C53.2543 184.505 55.9897 181.381 63.2603 180.827C67.0078 180.542 67.9721 178.966 68.1615 175.551C68.8976 162.282 69.1126 148.956 72.7637 135.998C84.556 94.1465 110.578 64.9369 150.512 47.9381C160.354 43.7484 170.538 40.7059 181.008 38.7153C185.909 37.7836 187.977 35.7009 187.96 30.4179C187.91 15.6491 197.299 3.17593 210.091 0.839974C231.062 -2.98968 246.294 6.2954 249.322 28.2956C250.811 39.1114 248.939 36.8557 260.361 39.5206C282.123 44.5976 302.054 53.3129 319.426 67.3942C345.015 88.1366 360.956 114.69 366.531 147.294C368.078 156.338 368.891 165.448 368.473 174.617C368.285 178.74 369.501 180.936 374.015 180.753C377.631 180.607 380.455 182.23 382.041 185.632C389.197 200.977 378.791 222.635 362.464 226.578C359.814 227.217 357.193 227.254 354.536 227.254C314.216 227.261 273.895 227.257 233.575 227.255C225.812 227.255 225.541 227.496 225.534 235.512C225.512 262.003 225.507 288.495 225.517 314.986C225.524 333.111 215.033 343.836 196.822 344.113C188.493 344.24 180.153 344.335 171.833 344.039C167.382 343.88 164.638 345.226 162.063 349.108C155.106 359.597 141.02 361.372 131.397 353.506C121.992 345.818 120.955 330.994 129.216 322.326C138.85 312.217 154.458 313.439 162.35 325.256C164.613 328.645 167.051 329.791 170.934 329.692C179.759 329.467 188.593 329.659 197.423 329.615C206.886 329.567 211.831 324.593 211.782 314.994C211.674 294.186 211.446 273.378 211.302 252.57C211.257 246.084 211.88 239.623 211.396 233.103C211.072 228.739 209.176 227.201 205.16 227.254C200.664 227.314 196.165 227.266 191.168 227.265ZM268.089 56.5866C238.415 47.9657 208.537 46.9637 178.404 54.0292C121.962 67.2637 81.8774 113.441 82.382 173.112C82.4414 180.134 82.9184 180.662 90.1598 180.659C143.975 180.641 197.791 180.636 251.606 180.627C283.929 180.621 316.252 180.532 348.573 180.702C353.421 180.728 355.122 179.123 354.908 174.361C354.714 170.033 354.228 165.742 353.959 161.433C352.913 144.677 347.967 129.056 340.017 114.441C324.27 85.4916 299.94 66.946 268.089 56.5866ZM272.671 212.653C297.335 212.654 321.999 212.657 346.663 212.654C350.663 212.653 354.673 212.807 358.659 212.565C364.48 212.211 369.177 206.356 368.925 199.877C368.664 193.174 363.346 195.328 359.919 195.324C265.43 195.194 170.94 195.205 76.4507 195.194C74.951 195.194 73.4514 195.226 71.9516 195.231C68.279 195.242 67.0416 197.104 67.3314 200.676C67.9312 208.07 72.9875 212.621 81.1921 212.624C144.685 212.652 208.178 212.648 272.671 212.653ZM226.589 15.783C214.512 10.8886 203.695 16.826 201.778 29.4455C201.315 32.4893 201.552 35.4352 205.588 35.5018C214.042 35.6413 222.5 35.5638 230.956 35.5507C234.149 35.5457 235.214 33.7646 235.21 30.7378C235.202 24.3801 232.542 19.5735 226.589 15.783ZM141.848 330.066C137.965 331.899 135.695 334.699 137.285 339.122C138.852 343.482 143.307 345.669 147.242 344.396C150.521 343.335 153.192 338.856 152.401 335.745C151.292 331.382 147.603 329.16 141.848 330.066Z" fill="#D88E2D"/>
<path d="M262.985 344.665C268.629 349.135 273.795 353.299 275.641 360.548C278.599 372.161 271.386 384.708 259.897 387.109C246.913 389.823 235.296 381.723 233.83 368.904C232.783 359.754 235.895 352.393 243.946 347.764C247.415 345.77 248.211 343.303 248.178 339.654C248.03 323.162 248.032 306.668 248.101 290.174C248.15 278.623 251.921 268.906 262.538 262.953C266.814 260.556 271.472 259.54 276.426 259.548C312.079 259.605 347.732 259.592 383.385 259.584C396.334 259.581 401.904 254.004 401.901 241.109C401.896 217.452 401.793 193.794 401.96 170.137C401.991 165.658 400.843 163.031 396.556 160.795C382.474 153.45 376.066 141.051 374.81 125.543C373.7 111.832 374.862 98.4712 381.998 86.4452C388.254 75.901 396.626 67.7634 410.038 67.6264C420.397 67.5205 427.424 73.5637 433.427 81.0196C440.463 89.7599 443.388 100.267 444.326 111.12C445.38 123.304 444.758 135.424 437.903 146.348C433.613 153.184 428.174 158.676 420.62 161.612C417.015 163.013 416.053 165.186 416.077 168.806C416.219 190.963 416.25 213.121 416.163 235.278C416.127 244.432 416.112 253.626 410.309 261.592C404.833 269.109 397.678 273.272 388.318 273.282C352.332 273.32 316.346 273.307 280.36 273.325C267.478 273.332 262.49 278.294 262.471 291.085C262.464 295.582 262.478 300.081 262.522 304.578C262.556 307.997 264.116 309.747 267.746 309.718C278.741 309.629 289.738 309.599 300.732 309.73C304.012 309.769 305.252 307.885 306.677 305.414C311.837 296.47 320.891 292.982 331.067 295.727C339.49 297.999 345.449 306.255 345.502 315.726C345.558 325.68 339.436 333.979 330.085 336.626C322.293 338.833 312.595 335.618 308.059 328.588C305.816 325.112 303.252 324.139 299.427 324.203C289.101 324.376 278.765 324.444 268.443 324.178C263.762 324.058 262.136 325.869 262.429 330.341C262.733 334.985 262.701 339.651 262.985 344.665ZM430.838 116.585C430.102 107.175 428.089 98.1643 422.357 90.3867C413.942 78.9664 404.158 78.8199 396.489 90.8499C387.27 105.309 385.395 121.037 392.518 136.985C395.513 143.693 400.642 149 408.648 149.535C416.85 150.084 421.817 144.923 425.725 138.545C429.674 132.1 430.765 124.908 430.838 116.585ZM256.267 358.178C250.819 358.287 246.873 361.284 246.657 365.477C246.475 369.024 250.6 373.675 254.358 374.161C257.966 374.628 262.108 371.25 262.663 367.093C263.251 362.689 261.111 359.818 256.267 358.178ZM317.632 317.855C320.316 323.187 324.229 324.986 328.197 322.605C331.632 320.543 332.802 317.38 331.605 313.651C330.47 310.111 327.601 308.005 324.013 308.586C319.586 309.302 317.153 312.329 317.632 317.855Z" fill="#D88E2D"/>
<path d="M10.8002 153.377C2.44639 146.297 0.309492 136.931 0.148207 127.072C-0.129747 110.085 0.0632465 93.0903 0.0914445 76.099C0.0978835 72.2159 0.879836 68.7383 5.34645 67.5451C9.39909 66.4624 12.7843 68.267 13.7094 72.3741C14.2146 74.6172 14.2577 76.9958 14.2669 79.3142C14.3338 96.3044 14.1785 113.297 14.4307 130.284C14.5612 139.072 20.3869 145.074 29.195 146.437C37.2007 147.677 45.6929 142.759 48.178 135.029C49.1804 131.911 49.6966 128.504 49.7153 125.225C49.8063 109.236 49.6457 93.245 49.6008 77.2549C49.5961 75.5935 49.6432 73.9133 49.8834 72.2736C50.391 68.8085 52.6608 67.0582 55.9888 66.7231C59.2003 66.3997 61.3613 67.9859 62.6856 70.8739C63.5558 72.7715 63.4674 74.7705 63.4683 76.7632C63.4754 93.4216 63.5737 110.081 63.4392 126.738C63.3196 141.543 57.435 152.842 43.0415 158.535C39.8185 159.81 38.4707 161.907 38.4808 165.389C38.5556 191.376 38.4395 217.363 38.5648 243.349C38.6095 252.61 45.5448 259.482 54.7131 259.539C71.7038 259.644 88.6975 259.419 105.686 259.631C110.065 259.685 112.127 257.334 114.466 254.303C120.643 246.299 131.413 244.109 140.588 248.642C148.403 252.503 153.239 263.293 151.073 272.034C148.619 281.938 139.842 288.777 129.819 288.196C122.355 287.763 116.277 284.408 112.856 277.613C111.138 274.199 108.926 273.275 105.383 273.299C88.3927 273.417 71.4005 273.385 54.4092 273.313C37.2054 273.239 24.9185 261 24.837 243.661C24.7166 218.008 24.6961 192.353 24.8703 166.7C24.9005 162.246 23.9512 159.351 19.2416 158.321C16.092 157.632 13.6206 155.497 10.8002 153.377ZM134.508 261.23C130.77 258.593 127.535 259.62 124.931 262.876C122.678 265.694 122.872 268.722 125.215 271.506C128.133 274.975 131.911 275.327 135.24 272.491C138.671 269.567 138.617 266.063 134.508 261.23Z" fill="#D88E2D"/>
<path d="M24.8358 75.2702C25.5081 69.453 27.9295 66.6847 31.8358 66.8108C36.0956 66.9481 38.4855 70 38.4987 75.587C38.5391 92.7002 38.5491 109.814 38.5107 126.927C38.4993 131.997 35.8598 134.874 31.5691 134.783C27.5677 134.699 24.9065 131.858 24.8813 127.071C24.791 109.959 24.8371 92.845 24.8358 75.2702Z" fill="#D88E2D"/>
</svg>
